<?xml version="1.0" encoding="utf-8"?>
<!-- Generator: Adobe Illustrator 21.0.0, SVG Export Plug-In . SVG Version: 6.00 Build 0)  -->
<svg version="1.1" id="图层_1" xmlns="http://www.w3.org/2000/svg" xmlns:xlink="http://www.w3.org/1999/xlink" x="0px" y="0px"
	 viewBox="0 0 595.3 841.9" style="enable-background:new 0 0 595.3 841.9;" xml:space="preserve">
<style type="text/css">
	.st0{fill:#CAC8C8;}
	.st1{fill:#858484;}
	.st2{fill:#656565;}
	.st3{fill:#8F8D8D;}
	.st4{fill:#B1AFAF;}
	.st5{fill:#979595;}
	.st6{fill:#A4A2A2;}
	.st7{fill:#FFFFFF;}
	.st8{fill:#918F8F;}
	.st9{fill:#F0F0F0;}
	.st10{fill:#676767;}
	.st11{fill:#C8C6C6;}
	.st12{fill:#FFFDFD;}
</style>
<path class="st0" d="M139.4,628.5c1.3,0,2.7,0,4,0c113,0,226,0,339,0c-0.9,0.7-1.9,0.4-2.8,0.4c-112.5,0-224.9,0-337.4,0
	C141.3,628.9,140.3,629.1,139.4,628.5z"/>
<path class="st1" d="M405.8,210.9c0,17.2,0,34.4,0,51.6c0,32.8,0,65.6,0,98.4c0,1.1,0.5,2.3-0.6,3.2c0.1-1.2,0.2-2.5,0.2-3.7
	c0-48.7,0-97.4,0-146.1C405.4,213.1,405.1,211.9,405.8,210.9z"/>
<path class="st2" d="M457.6,364.1c-1.1-0.9-0.6-2.1-0.6-3.2c0-50,0-99.9,0-149.9c0.1-0.2,0.3-0.2,0.4,0c0,1.1,0.1,2.1,0.1,3.2
	c0,48.8,0,97.6,0,146.4C457.5,361.8,457.6,362.9,457.6,364.1z"/>
<path class="st3" d="M245.8,237c0,17.8,0,35.6-0.1,53.4c0,23.6,0,47.1,0,70.7c0,1,0.5,2.1-0.6,2.9c0.1-1.1,0.2-2.3,0.2-3.4
	c0-40.4,0-80.7,0-121.1c0-1-0.5-2.1,0.5-2.9c0.2,0.1,0.2,0.2,0.2,0.3C245.9,237,245.9,237,245.8,237z"/>
<path class="st4" d="M377.8,364c-1.1-0.8-0.6-2-0.6-2.9c0-30.2,0-60.4,0-90.6c0-1.1-0.1-2.1-0.1-3.2c-0.1-0.1-0.2-0.2-0.2-0.3
	c0-0.1,0.1-0.2,0.1-0.2c1,0.9,0.5,2,0.5,3c0,30.2,0,60.4,0,90.7C377.6,361.7,377.7,362.8,377.8,364z"/>
<path class="st5" d="M217.7,364c-1.1-0.8-0.5-2-0.5-3c0-21.7,0-43.3,0-65c0-1.1-0.1-2.1-0.1-3.2c1,0.8,0.5,2,0.5,3
	c0,21.6,0,43.2,0,64.7C217.6,361.7,217.7,362.9,217.7,364z"/>
<path class="st1" d="M457.3,211c-0.1,0-0.3,0-0.4,0c-17,0-34.1-0.1-51.1-0.1c0.7-0.6,1.5-0.4,2.3-0.4c15.7,0,31.4,0,47.1,0
	C455.9,210.5,456.8,210.1,457.3,211z"/>
<path class="st2" d="M377.1,266.9c0,0.1,0,0.3,0,0.4c-17.2,0-34.3,0-51.5,0c0.2-0.7,0.8-0.5,1.3-0.5
	C343.7,266.8,360.4,266.9,377.1,266.9z"/>
<path class="st2" d="M245.8,237c0-0.1,0-0.3,0-0.4c16.7,0,33.4-0.1,50.2-0.1c0.5,0,1.1-0.2,1.3,0.5C280.2,237,263,237,245.8,237z"/>
<path class="st5" d="M483.1,528.8c-10.4,0-20.7,0-31.1,0c-0.7,0-1.4,0.1-2-0.5c10,0,20,0,30,0.1C481,528.5,482.1,528.2,483.1,528.8z
	"/>
<path class="st2" d="M449,464.6c0.2-0.9,0.9-1,1.6-1c9,0,18,0,27,0c0.4,0,0.8,0.3,1.2,0.4c-8.9,0-17.8,0-26.7,0
	C451,464.1,449.9,463.8,449,464.6z"/>
<path class="st6" d="M92.1,573.6c0,3.8,0,7.5,0,11.3C91.4,581.1,91.3,577.3,92.1,573.6z"/>
<path class="st2" d="M440.4,497.6c-0.8-2.7-0.8-5.3,0-8C440.4,492.3,440.4,494.9,440.4,497.6z"/>
<path class="st7" d="M499.8,451.3c-1.4-3.2-2.8-6.3-4.2-9.5c-2.5-5.6-4.4-11.4-6.2-17.4c-1.6-5.3-1.5-10.6-1.6-16
	c-0.1-3.5,0.4-6.9,1.3-10.2c2-7,5.5-13.3,9.4-19.5c1.5-2.3,2.8-4.8,1.8-7.8c-1.5-4.7-4.2-6.7-10.1-6.8c-10.9-0.3-21.8-0.1-32.7-0.1
	c-0.8-0.9-0.4-2-0.4-3c0-49,0-98,0-147c0-1,0.2-2.1-0.2-3.1c-0.3-0.1-0.7-0.2-1-0.2c-16.4,0-32.7,0-49.1,0c-0.4,0-0.7,0-1,0.2l0,0
	c-0.3,1-0.2,2.1-0.2,3.2c0,49,0,98,0,146.9c0,1,0.4,2.1-0.4,3.1c-9.2,0-18.3,0-27.5,0c-0.7-0.9-0.3-1.9-0.3-2.8
	c0-30.4,0-60.7,0-91.1c0-1,0.2-1.9-0.2-2.9c-0.5-0.2-1-0.2-1.6-0.2c-16.1,0-32.1,0-48.2,0c-0.6,0-1.2-0.1-1.8,0.3
	c0,1.1-0.1,2.1-0.1,3.2c0,30.2,0,60.4,0.1,90.6c0,2.5-0.7,3-3.1,3c-7.3-0.1-14.7-0.2-22.1,0c-2.4,0.1-3.1-0.5-3.1-3
	c0.1-40.3,0.1-80.6,0.1-120.9c0-1.1-0.1-2.1-0.1-3.2c-0.6-0.4-1.4-0.3-2.1-0.3c-15.8,0-31.7,0-47.5,0c-0.7,0-1.4-0.2-2.1,0.2
	c-0.3,1-0.2,2.1-0.2,3.2c0,40.3,0,80.5,0,120.8c0,1,0.4,2.1-0.4,3.1c-9.1,0-18.3,0-27.4,0c-0.7-0.9-0.4-1.9-0.4-2.8
	c0-21.8,0-43.7,0-65.5c0-0.9,0.3-1.9-0.3-2.8c-16.3,0-32.6,0-48.9-0.1c-2.2,0-2.8,0.5-2.8,2.7c0.1,18.8,0.1,37.6,0,56.4
	c0,4,0.3,7.9-0.2,11.9c-3.9,0.7-7.9,0.3-11.9,0.3c-3,0-6,0.1-8.9,0.8c-10.7,2.3-20.2,6.7-28,14.9c-8.6,9.1-13.3,19.5-13.9,31.9
	c-0.5,10.9,2.1,20.9,8.2,30c1,1.5,2.6,2.7,3,5c-14.4-1.3-27.7,1.4-39.2,10.2c-11.7,8.9-18.2,21-19.6,35.5c-1,10.4,1.4,20.4,6.9,29.4
	c9.4,15.4,23.4,23.3,41.5,24.9c-6.4,8.2-10.4,17-11.4,27.1c-0.3,3.8-0.3,7.5,0,11.3c0,3.5,0.8,6.9,1.7,10.3
	c3.4,12.6,10.4,22.2,22.3,28.1c7.4,3.6,15.2,5.1,23.3,5.3c1,0.3,1.9,0.1,2.9,0.1c112.4,0,224.8,0,337.2,0c1,0,1.9,0.2,2.9-0.2
	c6.3-1.4,9.2-6.8,6.7-12.7c-0.9-2.3-2.2-4.4-3.1-6.6c-4-9.6-8.1-19.1-9-29.7c-0.4-5.3,0-10.4,1.1-15.4c1.6-8,5.9-14.8,10.1-21.6
	c1.4-2.3,2.3-4.5,1.4-7.3c-1.1-3.3-3.6-4.9-6.5-6.3c-10.1-0.3-20.1,0-30.2-0.2c-1,0-1.9,0.3-2.9-0.3c-4.3-9.9-8.8-19.8-9.6-30.8
	c-0.4-2.7-0.3-5.3,0-8c0.3-2.7,0.3-5.4,1-8.1c1.6-6.1,4.1-11.7,7.6-16.9c0.7-1,1.7-0.7,2.6-0.7c5.2,0,10.4-0.1,15.6,0
	c3.9,0,7.7-0.3,11.6,0.2c4.1,0,8.1,0,12.2,0.1C497,464.4,503.1,458.9,499.8,451.3z M462.6,546.3c1,0,2.3-0.9,3,0.8
	c-3.3,7.3-5.6,14.8-6,22.9c-0.3,3.7-0.3,7.4,0,11.1c0.7,10.4,4.3,20,8.1,29.7c-0.7,0-1.3,0.1-1.8,0.1c-19.9,0-39.8,0-59.7,0
	c-0.4,0-0.9-0.1-1.3-0.1c-1-0.3-2.1-0.2-3.2-0.2c-87.5,0-175,0-262.4,0c-1,0-2-0.1-2.9,0.1c-4.4-0.6-8.6-1.5-12.7-3.5
	c-7.4-3.5-10.8-9.7-12.8-17c-0.8-2.8-1.1-5.7-1.2-8.6c-0.3-1.8-0.3-3.6,0-5.4c0.7-15.7,14.1-29.1,30.4-29.8c0.9-0.4,1.9-0.2,2.9-0.2
	C249.4,546.2,356,546.2,462.6,546.3z M475,446.2c-68.1,0-136.2,0-204.2,0c-1,0-2.1-0.2-3.1,0.2l0,0c-0.6,5.5-0.1,11-0.2,16.4
	c0,0.5,0.2,0.8,0.8,0.9c52.6,0,105.1,0,157.7,0c1,0,2.3-0.9,2.9,0.7c-1.9,4.7-3.8,9.4-4.9,14.4c-0.6,2.6-0.9,5.3-1.1,8
	c-0.5,1.7,0.3,3.6-0.4,5.3c-0.2,10.9,2.8,21.2,6.5,31.3c0.6,1.6,1.3,3.2,1.9,4.8c-0.8,0.7-1.7,0.4-2.5,0.4c-107.4,0-214.7,0-322.1,0
	c-0.8,0-1.6,0.1-2.4-0.2c-15.4-0.4-27.4-11.2-30.6-25.8c-2.6-11.9,2.5-24.5,12.4-32c5.4-4.1,11.5-6.2,18.2-6.6
	c0.9-0.4,1.9-0.2,2.9-0.2c29.9,0,59.8,0,89.7,0c1,0,2.1,0.3,3.1-0.3c0-5.7,0-11.3,0-17c-0.5-0.4-1.2-0.3-1.8-0.3
	c-15.5,0-31.1,0-46.6,0c-0.4,0-0.7,0-1.1,0.1c-6.3-0.4-11.8-2.7-16.9-6.4c-6.8-5-11.2-11.8-12.6-19.9c-1.8-10,0.5-19.3,7.4-27
	c5.7-6.4,12.9-10.2,21.6-10.8c0.9-0.5,1.9-0.2,2.9-0.2c107.1,0,214.2,0,321.2,0c0.9,0,2-0.3,2.8,0.3c-5.6,10.9-7.2,22.6-6.2,34.6
	c0.8,9.8,3.9,19.1,7.6,28.1c0.1,0.3,0.1,0.6,0.2,1C477.1,446.6,476,446.2,475,446.2z"/>
<path class="st0" d="M476.5,382.2c-1.2,0-2.5-0.1-3.7-0.1c-106.4,0-212.8,0-319.2,0c-1.3,0-2.7,0-4,0c0.7-0.8,1.7-0.4,2.5-0.4
	c107.4,0,214.7,0,322.1,0C474.9,381.7,475.9,381.2,476.5,382.2z"/>
<path class="st5" d="M103.8,528.5c1.2,0,2.5-0.1,3.7-0.1c106.5,0,213,0,319.6,0c1.2,0,2.5-0.1,3.7-0.1c-0.6,1-1.6,0.6-2.4,0.6
	c-107.4,0-214.8,0-322.3,0C105.3,528.9,104.5,529.1,103.8,528.5z"/>
<path class="st8" d="M465.5,547.1c-1-1.1-2.3-0.5-3.5-0.5c-106.3,0-212.6,0-318.9,0c-1.1,0-2.1,0-3.2-0.1c0.9-0.7,1.9-0.4,2.8-0.4
	c106.8,0,213.5,0,320.3,0.1C463.8,546.1,465.5,544.9,465.5,547.1z"/>
<path class="st9" d="M136.3,610.7c0.7-0.6,1.5-0.4,2.3-0.4c87.8,0,175.6,0,263.4,0c0.9,0,2-0.3,2.8,0.4c-1,0-1.9,0.1-2.9,0.1
	c-86.1,0-172.3,0-258.4,0C141.1,610.8,138.7,610.7,136.3,610.7z"/>
<path class="st0" d="M267.6,446.5c1-0.9,2.2-0.5,3.3-0.5c67.8,0,135.6,0,203.5,0c1.2,0,2.5,0,3.7-0.1c-0.8,1-2,0.5-2.9,0.5
	c-68,0-136.1,0-204.1,0C269.9,446.5,268.8,446.5,267.6,446.5z"/>
<path class="st10" d="M428.8,464.6c-0.8-1-2-0.5-3-0.5c-51.7,0-103.3,0-155,0c-1.1,0-2.1,0-3.2,0c-0.2-0.1-0.2-0.2-0.2-0.3
	c0-0.1,0.1-0.2,0.2-0.2c52.9,0,105.8,0,158.8,0.1C427.1,463.6,428.8,462.5,428.8,464.6z"/>
<path class="st2" d="M199.5,463.5c-0.4,0.9-1.2,0.5-1.8,0.5c-31.3,0-62.6,0-93.8,0c1-0.8,2.2-0.5,3.3-0.5
	C137.9,463.5,168.7,463.5,199.5,463.5z"/>
<path class="st11" d="M150.1,446.4c0.5-0.6,1.1-0.4,1.7-0.4c15.1,0,30.2,0,45.3,0c0.8,0,1.8-0.3,2.5,0.5c-14.9,0-29.8-0.1-44.7-0.1
	C153.2,446.5,151.6,446.4,150.1,446.4z"/>
<path class="st0" d="M267.6,463.5c0,0.2,0,0.3,0,0.5c-0.6-0.3-0.6-0.8-0.6-1.3c0-5,0-10,0-15c0-0.4,0.3-0.8,0.5-1.2
	C267.6,452.2,267.6,457.9,267.6,463.5z"/>
<path class="st9" d="M459.5,581.1c-0.7-3.7-0.7-7.4,0-11.1C459.5,573.6,459.5,577.3,459.5,581.1z"/>
<path class="st9" d="M422.4,492.2c0.1-1.8-0.4-3.6,0.4-5.3C422.6,488.7,423.2,490.5,422.4,492.2z"/>
<path class="st3" d="M109.6,576.3c0,1.8,0,3.6,0,5.4C109,579.8,109,578,109.6,576.3z"/>
<path class="st12" d="M425.6,75.3C405,81,395.8,104,407,122.3c0.8,1.2,0.9,2-0.2,3.1c-11.2,11.6-22.3,23.3-33.4,35
	c-0.9,0.9-1.5,1.3-2.9,0.7c-13-5.2-24.8-3-35.1,6.5c-0.9,0.8-1.5,1.2-2.7,0.5c-9.8-5.2-19.7-10.3-29.5-15.5
	c-1.1-0.6-1.5-1.1-1.2-2.5c0.9-4.2,0.8-8.4-0.2-12.6c-4.2-18-22.7-28.7-40.1-23.1c-17.9,5.7-26.7,24.8-19.5,42.2
	c0.7,1.6,0.3,2.3-0.9,3.3c-12.1,9.1-24.1,18.2-36.2,27.4c-1.5,1.1-2.5,1.3-4.2,0.4c-12-6.2-26.7-4-36.1,5.2
	c-9.8,9.6-12.5,23.9-6.8,35.9c7.8,16.4,27,22.8,43.2,14.6c15.8-8.1,21.6-27.6,12.6-43.5c-0.9-1.7-0.6-2.4,0.8-3.4
	c11.7-8.8,23.4-17.7,35.1-26.6c1.2-0.9,1.9-0.9,3.2-0.1c13.8,9.4,30.5,7.5,42-4.9c0.9-0.9,1.5-1.2,2.7-0.6c9.5,5,19,10,28.6,15
	c1.2,0.6,1.6,1.3,1.2,2.7c-0.9,3.7-1.2,7.5-0.8,11.3c1.6,12.9,10.9,23.5,23.6,26.7c12.5,3.2,25.9-1.8,33.5-12.4
	c7.4-10.4,7.7-24.5,0.5-35.1c-1.5-2.2-1.1-3.3,0.5-5c10.5-10.9,20.9-21.9,31.3-32.9c1.5-1.6,2.5-1.7,4.5-0.7
	c20.7,9.8,44.8-5.4,44.8-28.3C465.2,85.1,445.4,70,425.6,75.3z M186.4,233.8c-9.9-0.1-18.2-8.5-18.1-18.2c0.1-9.9,8.3-18,18.2-18
	c9.9,0,18.2,8.2,18.2,18C204.8,225.5,196.3,233.9,186.4,233.8z M271.1,162.6c-9.9,0-18.1-8.2-18.2-18c-0.1-9.8,8.2-18.1,18.1-18.1
	c10,0,18.5,8.3,18.4,18.2C289.2,154.4,280.9,162.6,271.1,162.6z M357.8,207.8c-9.9,0-18.3-8.2-18.3-17.9c0-9.9,8.4-18.2,18.3-18.2
	c9.9,0.1,18.1,8.3,18.1,18.1C376,199.6,367.7,207.8,357.8,207.8z M433.3,123.7c-9.8-0.1-18-8.5-17.9-18.4
	c0.1-9.8,8.5-17.9,18.4-17.8c10,0.1,18,8.3,17.9,18.2C451.7,115.8,443.4,123.9,433.3,123.7z"/>
<path class="st7" d="M213.3,492.3c0-2.8,0-5.1,0-7.4c0-24.7,0.1-49.4,0-74.1c0-2.4,0.4-3.3,3.1-3.3c11.7,0.2,23.4,0.1,35.1,0
	c1.6,0,2.4,0.2,2.4,2.1c-0.1,27.2,0,54.4-0.1,81.6c0,0.2-0.1,0.3-0.1,0.7c-1.4-0.2-2.3-1.1-3.4-1.8c-4.1-2.6-8.3-5.1-12.3-7.8
	c-3.1-2.1-6-2-9.1,0C223.8,485.7,218.8,488.8,213.3,492.3z"/>
</svg>
